<svg width="10" height="5" viewBox="0 0 10 5" fill="none" xmlns="http://www.w3.org/2000/svg">
<path d="M9.32925 1.37629C9.53707 1.19445 9.55813 0.878566 9.37629 0.670748C9.19445 0.462929 8.87857 0.441871 8.67075 0.623712L9.32925 1.37629ZM5.6585 3.92381L5.98776 4.3001L5.6585 3.92381ZM4.3415 3.92381L4.67075 3.54752L4.67075 3.54752L4.3415 3.92381ZM1.32925 0.623712C1.12143 0.441871 0.805553 0.462929 0.623712 0.670748C0.441871 0.878566 0.462929 1.19445 0.670748 1.37629L1.32925 0.623712ZM8.67075 0.623712L5.32925 3.54752L5.98776 4.3001L9.32925 1.37629L8.67075 0.623712ZM4.67075 3.54752L1.32925 0.623712L0.670748 1.37629L4.01224 4.3001L4.67075 3.54752ZM5.32925 3.54752C5.14074 3.71247 4.85926 3.71247 4.67075 3.54752L4.01224 4.3001C4.57778 4.79494 5.42222 4.79494 5.98776 4.3001L5.32925 3.54752Z" fill="#44494D"/>
</svg>
